<mxfile host="app.diagrams.net" agent="Mozilla/5.0 (Windows NT 10.0; Win64; x64) AppleWebKit/537.36 (KHTML, like Gecko) Chrome/136.0.0.0 Safari/537.36 Edg/136.0.0.0" version="27.0.6">
  <diagram name="Page-1" id="C_E7Xps8tGH1VOD4I_89">
    <mxGraphModel dx="778" dy="438" grid="1" gridSize="10" guides="1" tooltips="1" connect="1" arrows="1" fold="1" page="1" pageScale="1" pageWidth="850" pageHeight="1100" background="#ffffff" math="0" shadow="0">
      <root>
        <mxCell id="0" />
        <mxCell id="1" parent="0" />
        <mxCell id="Y6burqmvtdeqRdOFJDXv-11" style="edgeStyle=orthogonalEdgeStyle;rounded=0;orthogonalLoop=1;jettySize=auto;html=1;entryX=0.5;entryY=0;entryDx=0;entryDy=0;" parent="1" source="Y6burqmvtdeqRdOFJDXv-1" target="Y6burqmvtdeqRdOFJDXv-5" edge="1">
          <mxGeometry relative="1" as="geometry" />
        </mxCell>
        <mxCell id="Y6burqmvtdeqRdOFJDXv-1" value="Start" style="rounded=0;whiteSpace=wrap;html=1;fillColor=#f8cecc;strokeColor=#b85450;" parent="1" vertex="1">
          <mxGeometry x="355" y="74" width="100" height="40" as="geometry" />
        </mxCell>
        <mxCell id="Y6burqmvtdeqRdOFJDXv-12" value="" style="edgeStyle=orthogonalEdgeStyle;rounded=0;orthogonalLoop=1;jettySize=auto;html=1;" parent="1" source="Y6burqmvtdeqRdOFJDXv-5" target="Y6burqmvtdeqRdOFJDXv-9" edge="1">
          <mxGeometry relative="1" as="geometry" />
        </mxCell>
        <mxCell id="Y6burqmvtdeqRdOFJDXv-5" value="Set Initial Parameters" style="swimlane;fontStyle=0;childLayout=stackLayout;horizontal=1;startSize=30;horizontalStack=0;resizeParent=1;resizeParentMax=0;resizeLast=0;collapsible=1;marginBottom=0;whiteSpace=wrap;html=1;align=center;fillColor=#fff2cc;strokeColor=#d6b656;" parent="1" vertex="1">
          <mxGeometry x="300" y="160" width="210" height="120" as="geometry" />
        </mxCell>
        <mxCell id="Y6burqmvtdeqRdOFJDXv-6" value="Temperature" style="text;strokeColor=none;fillColor=none;align=center;verticalAlign=middle;spacingLeft=4;spacingRight=4;overflow=hidden;points=[[0,0.5],[1,0.5]];portConstraint=eastwest;rotatable=0;whiteSpace=wrap;html=1;" parent="Y6burqmvtdeqRdOFJDXv-5" vertex="1">
          <mxGeometry y="30" width="210" height="30" as="geometry" />
        </mxCell>
        <mxCell id="Y6burqmvtdeqRdOFJDXv-7" value="Material Properties" style="text;strokeColor=none;fillColor=none;align=center;verticalAlign=middle;spacingLeft=4;spacingRight=4;overflow=hidden;points=[[0,0.5],[1,0.5]];portConstraint=eastwest;rotatable=0;whiteSpace=wrap;html=1;" parent="Y6burqmvtdeqRdOFJDXv-5" vertex="1">
          <mxGeometry y="60" width="210" height="30" as="geometry" />
        </mxCell>
        <mxCell id="Y6burqmvtdeqRdOFJDXv-8" value="Excitation Current and Frequency" style="text;strokeColor=none;fillColor=none;align=center;verticalAlign=middle;spacingLeft=4;spacingRight=4;overflow=hidden;points=[[0,0.5],[1,0.5]];portConstraint=eastwest;rotatable=0;whiteSpace=wrap;html=1;" parent="Y6burqmvtdeqRdOFJDXv-5" vertex="1">
          <mxGeometry y="90" width="210" height="30" as="geometry" />
        </mxCell>
        <mxCell id="Y6burqmvtdeqRdOFJDXv-20" value="" style="edgeStyle=orthogonalEdgeStyle;rounded=0;orthogonalLoop=1;jettySize=auto;html=1;entryX=0.5;entryY=0;entryDx=0;entryDy=0;" parent="1" source="Y6burqmvtdeqRdOFJDXv-9" target="Y6burqmvtdeqRdOFJDXv-14" edge="1">
          <mxGeometry relative="1" as="geometry" />
        </mxCell>
        <mxCell id="Y6burqmvtdeqRdOFJDXv-9" value="Simulate Power Loss in Coil and Core" style="rounded=0;whiteSpace=wrap;html=1;fillColor=#dae8fc;strokeColor=#6c8ebf;" parent="1" vertex="1">
          <mxGeometry x="280" y="313" width="250" height="40" as="geometry" />
        </mxCell>
        <mxCell id="Y6burqmvtdeqRdOFJDXv-10" value="Electromagnetic Simulation (Ansys Maxwell)&amp;nbsp;" style="text;html=1;align=center;verticalAlign=middle;whiteSpace=wrap;rounded=0;fontStyle=1" parent="1" vertex="1">
          <mxGeometry x="410" y="117" width="170" height="40" as="geometry" />
        </mxCell>
        <mxCell id="Y6burqmvtdeqRdOFJDXv-14" value="Set Initial Parameters" style="swimlane;fontStyle=0;childLayout=stackLayout;horizontal=1;startSize=30;horizontalStack=0;resizeParent=1;resizeParentMax=0;resizeLast=0;collapsible=1;marginBottom=0;whiteSpace=wrap;html=1;fillColor=#fff2cc;strokeColor=#d6b656;" parent="1" vertex="1">
          <mxGeometry x="300" y="400" width="210" height="120" as="geometry">
            <mxRectangle x="330" y="420" width="160" height="30" as="alternateBounds" />
          </mxGeometry>
        </mxCell>
        <mxCell id="Y6burqmvtdeqRdOFJDXv-15" value="Convection Coefficient" style="text;strokeColor=none;fillColor=none;align=center;verticalAlign=middle;spacingLeft=4;spacingRight=4;overflow=hidden;points=[[0,0.5],[1,0.5]];portConstraint=eastwest;rotatable=0;whiteSpace=wrap;html=1;" parent="Y6burqmvtdeqRdOFJDXv-14" vertex="1">
          <mxGeometry y="30" width="210" height="30" as="geometry" />
        </mxCell>
        <mxCell id="Y6burqmvtdeqRdOFJDXv-16" value="Mesh Convergence" style="text;strokeColor=none;fillColor=none;align=center;verticalAlign=middle;spacingLeft=4;spacingRight=4;overflow=hidden;points=[[0,0.5],[1,0.5]];portConstraint=eastwest;rotatable=0;whiteSpace=wrap;html=1;" parent="Y6burqmvtdeqRdOFJDXv-14" vertex="1">
          <mxGeometry y="60" width="210" height="30" as="geometry" />
        </mxCell>
        <mxCell id="Y6burqmvtdeqRdOFJDXv-17" value="Contact Parameters" style="text;strokeColor=none;fillColor=none;align=center;verticalAlign=middle;spacingLeft=4;spacingRight=4;overflow=hidden;points=[[0,0.5],[1,0.5]];portConstraint=eastwest;rotatable=0;whiteSpace=wrap;html=1;" parent="Y6burqmvtdeqRdOFJDXv-14" vertex="1">
          <mxGeometry y="90" width="210" height="30" as="geometry" />
        </mxCell>
        <mxCell id="Y6burqmvtdeqRdOFJDXv-19" value="Thermal Simulation (Ansys Icepak)" style="text;html=1;align=center;verticalAlign=middle;whiteSpace=wrap;rounded=0;fontStyle=1" parent="1" vertex="1">
          <mxGeometry x="408" y="357" width="130" height="40" as="geometry" />
        </mxCell>
        <mxCell id="Y6burqmvtdeqRdOFJDXv-26" value="" style="edgeStyle=orthogonalEdgeStyle;rounded=0;orthogonalLoop=1;jettySize=auto;html=1;" parent="1" source="k5GTBuQvxjY6_y9kw7BG-5" target="Y6burqmvtdeqRdOFJDXv-23" edge="1">
          <mxGeometry relative="1" as="geometry">
            <mxPoint x="405" y="680" as="sourcePoint" />
          </mxGeometry>
        </mxCell>
        <mxCell id="Y6burqmvtdeqRdOFJDXv-27" style="edgeStyle=orthogonalEdgeStyle;rounded=0;orthogonalLoop=1;jettySize=auto;html=1;exitX=1;exitY=0.5;exitDx=0;exitDy=0;" parent="1" source="k5GTBuQvxjY6_y9kw7BG-5" target="Y6burqmvtdeqRdOFJDXv-24" edge="1">
          <mxGeometry relative="1" as="geometry">
            <mxPoint x="477.5" y="655" as="sourcePoint" />
          </mxGeometry>
        </mxCell>
        <mxCell id="Y6burqmvtdeqRdOFJDXv-23" value="End" style="rounded=0;whiteSpace=wrap;html=1;fillColor=#f8cecc;strokeColor=#b85450;" parent="1" vertex="1">
          <mxGeometry x="355" y="728" width="100" height="40" as="geometry" />
        </mxCell>
        <mxCell id="Y6burqmvtdeqRdOFJDXv-28" style="edgeStyle=orthogonalEdgeStyle;rounded=0;orthogonalLoop=1;jettySize=auto;html=1;entryX=1;entryY=0.5;entryDx=0;entryDy=0;" parent="1" source="Y6burqmvtdeqRdOFJDXv-24" target="Y6burqmvtdeqRdOFJDXv-9" edge="1">
          <mxGeometry relative="1" as="geometry">
            <Array as="points">
              <mxPoint x="590" y="333" />
            </Array>
          </mxGeometry>
        </mxCell>
        <mxCell id="Y6burqmvtdeqRdOFJDXv-24" value="Input New Temperature Information" style="rounded=0;whiteSpace=wrap;html=1;fillColor=#dae8fc;strokeColor=#6c8ebf;" parent="1" vertex="1">
          <mxGeometry x="538" y="430" width="100" height="60" as="geometry" />
        </mxCell>
        <mxCell id="Y6burqmvtdeqRdOFJDXv-29" value="Yes" style="text;align=center;verticalAlign=middle;whiteSpace=wrap;rounded=0;" parent="1" vertex="1">
          <mxGeometry x="400" y="696" width="60" height="30" as="geometry" />
        </mxCell>
        <mxCell id="Y6burqmvtdeqRdOFJDXv-31" value="No" style="text;html=1;align=center;verticalAlign=middle;whiteSpace=wrap;rounded=0;" parent="1" vertex="1">
          <mxGeometry x="582" y="552.5" width="60" height="30" as="geometry" />
        </mxCell>
        <mxCell id="k5GTBuQvxjY6_y9kw7BG-1" style="edgeStyle=orthogonalEdgeStyle;rounded=0;orthogonalLoop=1;jettySize=auto;html=1;exitX=0.5;exitY=1;exitDx=0;exitDy=0;" edge="1" parent="1" source="Y6burqmvtdeqRdOFJDXv-1" target="Y6burqmvtdeqRdOFJDXv-1">
          <mxGeometry relative="1" as="geometry" />
        </mxCell>
        <mxCell id="k5GTBuQvxjY6_y9kw7BG-3" value="" style="edgeStyle=orthogonalEdgeStyle;rounded=0;orthogonalLoop=1;jettySize=auto;html=1;" edge="1" parent="1" source="Y6burqmvtdeqRdOFJDXv-14" target="Y6burqmvtdeqRdOFJDXv-21">
          <mxGeometry relative="1" as="geometry">
            <mxPoint x="405" y="520" as="sourcePoint" />
            <mxPoint x="400" y="640" as="targetPoint" />
          </mxGeometry>
        </mxCell>
        <mxCell id="Y6burqmvtdeqRdOFJDXv-21" value="Simulate Temperature Rise In Components" style="rounded=0;whiteSpace=wrap;html=1;fillColor=#dae8fc;strokeColor=#6c8ebf;" parent="1" vertex="1">
          <mxGeometry x="280" y="545" width="250" height="45" as="geometry" />
        </mxCell>
        <mxCell id="k5GTBuQvxjY6_y9kw7BG-6" value="" style="edgeStyle=orthogonalEdgeStyle;rounded=0;orthogonalLoop=1;jettySize=auto;html=1;exitX=0.5;exitY=1;exitDx=0;exitDy=0;" edge="1" parent="1" source="Y6burqmvtdeqRdOFJDXv-21" target="k5GTBuQvxjY6_y9kw7BG-5">
          <mxGeometry relative="1" as="geometry">
            <mxPoint x="405" y="680" as="sourcePoint" />
            <mxPoint x="405" y="750" as="targetPoint" />
          </mxGeometry>
        </mxCell>
        <mxCell id="k5GTBuQvxjY6_y9kw7BG-5" value="Has Temperature Changed?" style="rhombus;whiteSpace=wrap;html=1;fillColor=#d5e8d4;strokeColor=#82b366;" vertex="1" parent="1">
          <mxGeometry x="330" y="614" width="150" height="87.5" as="geometry" />
        </mxCell>
      </root>
    </mxGraphModel>
  </diagram>
</mxfile>
